#!OML:ASF H:\Male1\Project 1\Capture day 1\Session 1\Male1.ASF
:FULLY-SPECIFIED
:DEGREES
302
root 9.74738 15.482 -1.41607 4.96735 -45.097 0.696735
lowerback 20.219 3.01134 0.804057
upperback 13.9236 3.41881 3.80916
thorax 3.65847 1.35971 3.03571
lowerneck -7.63953 -9.04098 -2.52646
upperneck -2.18999 -12.3246 18.5459
head 2.00951 -5.94854 5.3895
rclavicle 9.54166e-015 -1.51076e-014
rhumerus -20.7018 30.5194 -90.0863
rradius 80.7299
rwrist -76.5763
rhand -39.3452 -25.7736
rfingers 7.12502
rthumb -12.3365 -55.3897
lclavicle 9.54166e-015 -1.51076e-014
lhumerus -54.6903 -28.3945 90.5751
lradius 107.545
lwrist 17.6425
lhand -16.8797 34.2272
lfingers 7.12502
lthumb 9.35138 63.9997
rfemur -29.9818 -2.12345 14.7818
rtibia 42.5416
rfoot -18.8999 -20.5961
rtoes -25.8031
lfemur -14.4112 -6.32313 -21.4941
ltibia 27.9067
lfoot -19.2184 10.0028
ltoes -12.6989
303
root 9.67656 15.4898 -1.42053 4.99413 -45.3179 0.748914
lowerback 20.2228 3.03905 0.946893
upperback 13.9704 3.46562 3.98997
thorax 3.70602 1.38082 3.14316
lowerneck -7.65894 -9.06209 -2.42849
upperneck -2.34101 -12.3286 18.3512
head 1.94733 -5.96186 5.3185
rclavicle 5.88403e-014 3.18055e-014
rhumerus -21.2477 30.9424 -90.232
rradius 81.3754
rwrist -76.4805
rhand -39.2521 -25.924
rfingers 7.12502
rthumb -12.2468 -55.5454
lclavicle 5.88403e-014 3.18055e-014
lhumerus -56.5359 -27.6016 90.8354
lradius 109.264
lwrist 17.9424
lhand -16.5903 34.1327
lfingers 7.12502
lthumb 9.63069 63.8926
rfemur -29.7109 -1.4483 13.7121
rtibia 41.0923
rfoot -19.1971 -21.1886
rtoes -24.1066
lfemur -14.0361 -6.09003 -21.3303
ltibia 27.478
lfoot -19.1515 10.0548
ltoes -13.1067
304
root 9.60224 15.4963 -1.42869 5.00963 -45.4914 0.818143
lowerback 20.2341 3.03308 1.09596
upperback 14.0151 3.4702 4.15857
thorax 3.75072 1.38184 3.24101
lowerneck -7.67795 -9.06748 -2.30406
upperneck -2.48206 -12.3146 18.1305
head 1.88247 -5.96623 5.23706
rclavicle 3.73715e-014 -1.1291e-013
rhumerus -21.6572 31.404 -90.3305
rradius 81.9242
rwrist -76.3472
rhand -39.1789 -25.993
rfingers 7.12502
rthumb -12.1761 -55.6187
lclavicle 3.73715e-014 -1.1291e-013
lhumerus -58.1695 -26.7832 91.0578
lradius 110.891
lwrist 18.2248
lhand -16.1985 34.2371
lfingers 7.12502
lthumb 10.0087 63.9791
rfemur -29.3958 -0.666273 12.6168
rtibia 39.5531
rfoot -19.7539 -21.8778
rtoes -21.8524
lfemur -13.6753 -5.89402 -21.1571
ltibia 27.0594
lfoot -19.0661 10.1093
ltoes -13.5836
305
root 9.52363 15.5015 -1.44049 4.98985 -45.6268 0.940023
lowerback 20.2447 2.99774 1.23195
upperback 14.0561 3.43575 4.29673
thorax 3.7947 1.36413 3.32021
lowerneck -7.70051 -9.05598 -2.16172
upperneck -2.5994 -12.2838 17.9103
head 1.82244 -5.96077 5.15374
rclavicle 4.6118e-014 3.18055e-015
rhumerus -21.9705 31.8831 -90.3877
rradius 82.4193
rwrist -76.2609
rhand -39.183 -25.9043
rfingers 7.12502
rthumb -12.1801 -55.5297
lclavicle 4.6118e-014 3.18055e-015
lhumerus -59.5545 -25.9791 91.2439
lradius 112.384
lwrist 18.4882
lhand -15.731 34.5335
lfingers 7.12502
lthumb 10.4596 64.2533
rfemur -29.0471 0.246003 11.4794
rtibia 37.9423
rfoot -20.4644 -22.7346
rtoes -19.4237
lfemur -13.3161 -5.74262 -21.001
ltibia 26.6333
lfoot -18.955 10.1805
ltoes -14.1366
306
root 9.44016 15.5049 -1.45604 4.9128 -45.742 1.1364
lowerback 20.256 2.94337 1.3367
upperback 14.0944 3.37299 4.39966
thorax 3.83688 1.33211 3.38387
lowerneck -7.73133 -9.02791 -2.01223
upperneck -2.68038 -12.2378 17.6973
head 1.77325 -5.94504 5.07155
rclavicle -3.97569e-014 -1.59028e-015
rhumerus -22.2082 32.3591 -90.3657
rradius 82.9029
rwrist -76.273
rhand -39.3309 -25.6183
rfingers 7.12502
rthumb -12.3227 -55.2352
lclavicle -3.97569e-014 -1.59028e-015
lhumerus -60.6428 -25.2323 91.4108
lradius 113.69
lwrist 18.7132
lhand -15.2171 34.9321
lfingers 7.12502
lthumb 10.9554 64.6262
rfemur -28.6663 1.29998 10.3029
rtibia 36.2774
rfoot -21.1996 -23.8161
rtoes -17.4498
lfemur -12.9416 -5.63558 -20.8791
ltibia 26.1897
lfoot -18.8214 10.2846
ltoes -14.797
307
root 9.35135 15.5063 -1.47546 4.77307 -45.851 1.40105
lowerback 20.2668 2.87905 1.39709
upperback 14.1359 3.29089 4.48057
thorax 3.88264 1.28841 3.45224
lowerneck -7.76363 -8.98463 -1.87856
upperneck -2.72791 -12.1755 17.492
head 1.73439 -5.91883 4.99439
rclavicle 3.02153e-014 -4.77083e-014
rhumerus -22.3505 32.7964 -90.2144
rradius 83.379
rwrist -76.3682
rhand -39.4982 -25.3452
rfingers 7.12502
rthumb -12.484 -54.9523
lclavicle 3.02153e-014 -4.77083e-014
lhumerus -61.3779 -24.5661 91.5903
lradius 114.751
lwrist 18.8795
lhand -14.6772 35.3368
lfingers 7.12502
lthumb 11.476 65.0027
rfemur -28.2533 2.50679 9.10492
rtibia 34.5805
rfoot -21.8642 -25.1239
rtoes -16.3458
lfemur -12.5369 -5.56981 -20.787
ltibia 25.7298
lfoot -18.6758 10.4391
ltoes -15.611
308
root 9.25685 15.5051 -1.49928 4.56934 -45.9693 1.72757
lowerback 20.2772 2.82393 1.39935
upperback 14.1847 3.21151 4.55523
thorax 3.93361 1.24217 3.54646
lowerneck -7.78555 -8.93692 -1.76787
upperneck -2.75656 -12.1081 17.2915
head 1.70096 -5.88897 4.9226
rclavicle 4.77083e-014 -1.03368e-013
rhumerus -22.3828 33.1393 -89.8947
rradius 83.8163
rwrist -76.4937
rhand -39.6293 -25.1481
rfingers 7.12502
rthumb -12.6105 -54.7475
lclavicle 4.77083e-014 -1.03368e-013
lhumerus -61.7212 -24.0256 91.8244
lradius 115.539
lwrist 18.9744
lhand -14.1105 35.6658
lfingers 7.12502
lthumb 12.0226 65.3005
rfemur -27.8155 3.90826 7.88931
rtibia 32.8852
rfoot -22.4631 -26.5786
rtoes -15.9151
lfemur -12.0988 -5.52312 -20.7182
ltibia 25.2647
lfoot -18.5244 10.645
ltoes -16.6143
309
root 9.15661 15.5003 -1.52827 4.30706 -46.0957 2.10904
lowerback 20.2962 2.77705 1.34019
upperback 14.2393 3.13329 4.63138
thorax 3.98351 1.19183 3.67665
lowerneck -7.80725 -8.88436 -1.68772
upperneck -2.76149 -12.0348 17.0849
head 1.67564 -5.8544 4.85353
rclavicle 6.36111e-014 2.8625e-014
rhumerus -22.2783 33.3823 -89.3476
rradius 84.1988
rwrist -76.6272
rhand -39.589 -25.2223
rfingers 7.12502
rthumb -12.5715 -54.824
lclavicle 6.36111e-014 2.8625e-014
lhumerus -61.6675 -23.6244 92.1361
lradius 116.063
lwrist 19.0004
lhand -13.5425 35.9296
lfingers 7.12502
lthumb 12.5702 65.5315
rfemur -27.3677 5.52293 6.66354
rtibia 31.2422
rfoot -23.1983 -28.0046
rtoes -15.2687
lfemur -11.6369 -5.47867 -20.6633
ltibia 24.8055
lfoot -18.3754 10.8834
ltoes -17.7903
310
root 9.05062 15.4919 -1.56304 3.98833 -46.2239 2.54977
lowerback 20.3259 2.73834 1.22274
upperback 14.294 3.05745 4.70391
thorax 4.02551 1.13867 3.83516
lowerneck -7.82072 -8.83089 -1.63186
upperneck -2.75358 -11.9597 16.8727
head 1.65392 -5.81821 4.7867
rclavicle 3.18055e-015 -3.18055e-015
rhumerus -22.0159 33.5045 -88.5571
rradius 84.5092
rwrist -76.7805
rhand -39.4412 -25.4959
rfingers 7.12502
rthumb -12.429 -55.1063
lclavicle 3.18055e-015 -3.18055e-015
lhumerus -61.1827 -23.4082 92.5193
lradius 116.287
lwrist 19.0093
lhand -13.0265 36.1696
lfingers 7.12502
lthumb 13.0676 65.7403
rfemur -26.9349 7.31536 5.44353
rtibia 29.7171
rfoot -24.0963 -29.3177
rtoes -14.211
lfemur -11.167 -5.43156 -20.6207
ltibia 24.3672
lfoot -18.2482 11.1238
ltoes -19.0235
311
root 8.93792 15.4803 -1.60432 3.61588 -46.3464 3.06729
lowerback 20.3507 2.71194 1.03707
upperback 14.3395 2.98911 4.76062
thorax 4.05676 1.08576 4.01379
lowerneck -7.82136 -8.78342 -1.58683
upperneck -2.73497 -11.8929 16.6602
head 1.63489 -5.78585 4.72115
rclavicle -6.67916e-014 4.13472e-014
rhumerus -21.5832 33.4711 -87.5662
rradius 84.7007
rwrist -76.9576
rhand -39.2098 -25.8978
rfingers 7.12502
rthumb -12.206 -55.5217
lclavicle -6.67916e-014 4.13472e-014
lhumerus -60.2782 -23.4374 92.9523
lradius 116.223
lwrist 19.0808
lhand -12.635 36.4397
lfingers 7.12502
lthumb 13.445 65.9858
rfemur -26.5406 9.19963 4.26112
rtibia 28.3809
rfoot -25.0679 -30.4973
rtoes -13.1026
lfemur -10.7084 -5.36832 -20.5947
ltibia 23.9587
lfoot -18.1574 11.3253
ltoes -20.2018
